<?xml version="1.0" encoding="UTF-8" standalone="no"?>
<svg width="800" height="600" xmlns="http://www.w3.org/2000/svg">
  <style>
    .diagram-text { font-family: Arial, sans-serif; font-size: 14px; }
    .heading { font-size: 16px; font-weight: bold; }
    .table { fill: #ffffff; stroke: #6366f1; stroke-width: 2; }
    .table-heading { font-weight: bold; font-size: 14px; fill: #4f46e5; }
    .relation { stroke: #6366f1; stroke-width: 1.5; marker-end: url(#arrowhead); }
    .one-to-many { stroke-dasharray: 5,3; }
    .many-to-many { stroke-dasharray: 1,3; }
  </style>

  <defs>
    <marker id="arrowhead" markerWidth="10" markerHeight="7" refX="9" refY="3.5" orient="auto">
      <polygon points="0 0, 10 3.5, 0 7" fill="#6366f1" />
    </marker>
  </defs>

  <!-- Main Title -->
  <text x="400" y="30" class="diagram-text heading" text-anchor="middle">PaySurity Data Relationships</text>

  <!-- Users Table -->
  <rect x="50" y="60" width="180" height="110" rx="5" ry="5" class="table" />
  <text x="140" y="80" class="diagram-text table-heading" text-anchor="middle">Users</text>
  <line x1="70" y1="90" x2="210" y2="90" stroke="#6366f1" stroke-width="1" />
  <text x="75" y="110" class="diagram-text">id: int (PK)</text>
  <text x="75" y="130" class="diagram-text">username: string</text>
  <text x="75" y="150" class="diagram-text">password: string</text>
  <text x="75" y="170" class="diagram-text">role: enum</text>

  <!-- Merchants Table -->
  <rect x="350" y="60" width="180" height="120" rx="5" ry="5" class="table" />
  <text x="440" y="80" class="diagram-text table-heading" text-anchor="middle">Merchants</text>
  <line x1="370" y1="90" x2="510" y2="90" stroke="#6366f1" stroke-width="1" />
  <text x="375" y="110" class="diagram-text">id: int (PK)</text>
  <text x="375" y="130" class="diagram-text">userId: int (FK)</text>
  <text x="375" y="150" class="diagram-text">businessName: string</text>
  <text x="375" y="170" class="diagram-text">status: enum</text>

  <!-- Wallets Table -->
  <rect x="50" y="250" width="180" height="130" rx="5" ry="5" class="table" />
  <text x="140" y="270" class="diagram-text table-heading" text-anchor="middle">Wallets</text>
  <line x1="70" y1="280" x2="210" y2="280" stroke="#6366f1" stroke-width="1" />
  <text x="75" y="300" class="diagram-text">id: int (PK)</text>
  <text x="75" y="320" class="diagram-text">userId: int (FK)</text>
  <text x="75" y="340" class="diagram-text">balance: decimal</text>
  <text x="75" y="360" class="diagram-text">type: enum</text>
  <text x="75" y="380" class="diagram-text">parentId: int (FK/null)</text>

  <!-- Transactions Table -->
  <rect x="350" y="250" width="180" height="160" rx="5" ry="5" class="table" />
  <text x="440" y="270" class="diagram-text table-heading" text-anchor="middle">Transactions</text>
  <line x1="370" y1="280" x2="510" y2="280" stroke="#6366f1" stroke-width="1" />
  <text x="375" y="300" class="diagram-text">id: int (PK)</text>
  <text x="375" y="320" class="diagram-text">walletId: int (FK)</text>
  <text x="375" y="340" class="diagram-text">amount: decimal</text>
  <text x="375" y="360" class="diagram-text">type: enum</text>
  <text x="375" y="380" class="diagram-text">status: enum</text>
  <text x="375" y="400" class="diagram-text">timestamp: datetime</text>

  <!-- POS Tenants Table -->
  <rect x="650" y="60" width="180" height="120" rx="5" ry="5" class="table" />
  <text x="740" y="80" class="diagram-text table-heading" text-anchor="middle">POS Tenants</text>
  <line x1="670" y1="90" x2="810" y2="90" stroke="#6366f1" stroke-width="1" />
  <text x="675" y="110" class="diagram-text">id: int (PK)</text>
  <text x="675" y="130" class="diagram-text">merchantId: int (FK)</text>
  <text x="675" y="150" class="diagram-text">industryType: enum</text>
  <text x="675" y="170" class="diagram-text">features: json</text>

  <!-- Affiliates Table -->
  <rect x="50" y="450" width="180" height="120" rx="5" ry="5" class="table" />
  <text x="140" y="470" class="diagram-text table-heading" text-anchor="middle">Affiliates</text>
  <line x1="70" y1="480" x2="210" y2="480" stroke="#6366f1" stroke-width="1" />
  <text x="75" y="500" class="diagram-text">id: int (PK)</text>
  <text x="75" y="520" class="diagram-text">userId: int (FK)</text>
  <text x="75" y="540" class="diagram-text">code: string</text>
  <text x="75" y="560" class="diagram-text">commissionRate: decimal</text>

  <!-- Referrals Table -->
  <rect x="350" y="450" width="180" height="120" rx="5" ry="5" class="table" />
  <text x="440" y="470" class="diagram-text table-heading" text-anchor="middle">Referrals</text>
  <line x1="370" y1="480" x2="510" y2="480" stroke="#6366f1" stroke-width="1" />
  <text x="375" y="500" class="diagram-text">id: int (PK)</text>
  <text x="375" y="520" class="diagram-text">affiliateId: int (FK)</text>
  <text x="375" y="540" class="diagram-text">merchantId: int (FK)</text>
  <text x="375" y="560" class="diagram-text">status: enum</text>

  <!-- Languages Table -->
  <rect x="650" y="250" width="180" height="120" rx="5" ry="5" class="table" />
  <text x="740" y="270" class="diagram-text table-heading" text-anchor="middle">Languages</text>
  <line x1="670" y1="280" x2="810" y2="280" stroke="#6366f1" stroke-width="1" />
  <text x="675" y="300" class="diagram-text">id: int (PK)</text>
  <text x="675" y="320" class="diagram-text">code: string</text>
  <text x="675" y="340" class="diagram-text">name: string</text>
  <text x="675" y="360" class="diagram-text">enabled: boolean</text>

  <!-- Language Settings Table -->
  <rect x="650" y="450" width="180" height="120" rx="5" ry="5" class="table" />
  <text x="740" y="470" class="diagram-text table-heading" text-anchor="middle">User Language Settings</text>
  <line x1="670" y1="480" x2="810" y2="480" stroke="#6366f1" stroke-width="1" />
  <text x="675" y="500" class="diagram-text">userId: int (FK)</text>
  <text x="675" y="520" class="diagram-text">languageId: int (FK)</text>
  <text x="675" y="540" class="diagram-text">isPrimary: boolean</text>
  
  <!-- Relation Arrows -->
  <!-- User to Merchant (1:1) -->
  <line x1="230" y1="110" x2="350" y2="130" class="relation" />
  <text x="280" y="100" class="diagram-text" text-anchor="middle">1:1</text>
  
  <!-- User to Wallet (1:N) -->
  <line x1="140" y1="170" x2="140" y2="250" class="relation one-to-many" />
  <text x="120" y="210" class="diagram-text" text-anchor="middle">1:N</text>
  
  <!-- Wallet to Transactions (1:N) -->
  <line x1="230" y1="310" x2="350" y2="320" class="relation one-to-many" />
  <text x="290" y="290" class="diagram-text" text-anchor="middle">1:N</text>
  
  <!-- Wallet self-relation (Parent-Child) -->
  <path d="M 50,340 C 20,340 20,380 50,380" stroke="#6366f1" stroke-width="1.5" fill="none" marker-end="url(#arrowhead)" />
  <text x="15" y="360" class="diagram-text" text-anchor="middle">1:N</text>
  
  <!-- Merchant to POS Tenant (1:1) -->
  <line x1="530" y1="110" x2="650" y2="110" class="relation" />
  <text x="590" y="90" class="diagram-text" text-anchor="middle">1:1</text>
  
  <!-- User to Affiliate (1:1) -->
  <line x1="90" y1="170" x2="90" y2="450" class="relation" />
  <text x="70" y="310" class="diagram-text" text-anchor="middle">1:1</text>
  
  <!-- Affiliate to Referrals (1:N) -->
  <line x1="230" y1="520" x2="350" y2="520" class="relation one-to-many" />
  <text x="290" y="500" class="diagram-text" text-anchor="middle">1:N</text>
  
  <!-- Merchant to Referrals (1:N) -->
  <line x1="440" y1="180" x2="440" y2="450" class="relation one-to-many" />
  <text x="460" y="310" class="diagram-text" text-anchor="middle">1:N</text>
  
  <!-- User to Language Settings (M:N) -->
  <line x1="140" y1="170" x2="670" y2="500" class="relation many-to-many" />
  <text x="390" y="230" class="diagram-text" text-anchor="middle">M:N</text>
  
  <!-- Language to Language Settings (1:N) -->
  <line x1="740" y1="370" x2="740" y2="450" class="relation one-to-many" />
  <text x="760" y="410" class="diagram-text" text-anchor="middle">1:N</text>
</svg>
