<?xml version="1.0" encoding="UTF-8"?>
<svg width="512" height="512" viewBox="0 0 512 512" fill="none" xmlns="http://www.w3.org/2000/svg">
  <rect width="512" height="512" rx="256" fill="#FFFFFF"/>
  <path d="M256 90C163.6 90 88 165.6 88 258C88 350.4 163.6 426 256 426C348.4 426 424 350.4 424 258C424 165.6 348.4 90 256 90ZM256 120C332 120 394 182 394 258C394 334 332 396 256 396C180 396 118 334 118 258C118 182 180 120 256 120Z" fill="#4F46E5"/>
  <path d="M256 150C196.8 150 148 198.8 148 258C148 317.2 196.8 366 256 366C315.2 366 364 317.2 364 258C364 198.8 315.2 150 256 150ZM256 180C298.8 180 334 215.2 334 258C334 300.8 298.8 336 256 336C213.2 336 178 300.8 178 258C178 215.2 213.2 180 256 180Z" fill="#4F46E5"/>
  <path d="M256 210C230 210 208 232 208 258C208 284 230 306 256 306C282 306 304 284 304 258C304 232 282 210 256 210Z" fill="#4F46E5"/>
  <path d="M240 170L272 346" stroke="#4F46E5" stroke-width="18" stroke-linecap="round"/>
  <path d="M170 240L346 272" stroke="#4F46E5" stroke-width="18" stroke-linecap="round"/>
</svg>